<svg width="196" height="212" viewBox="0 0 196 212" fill="none" xmlns="http://www.w3.org/2000/svg">
<path d="M177.207 112.6C172.74 110 166.74 107.8 159.207 106C166.74 104.2 172.74 102 177.207 99.4C181.296 97.2895 184.914 94.3709 187.842 90.8209C190.77 87.2709 192.947 83.1635 194.241 78.7474C195.535 74.3313 195.919 69.6985 195.37 65.1297C194.821 60.5608 193.35 56.1509 191.047 52.1672C188.743 48.1835 185.655 44.7089 181.969 41.9538C178.283 39.1987 174.077 37.2204 169.604 36.139C165.131 35.0575 160.485 34.8952 155.948 35.662C151.41 36.4288 147.076 38.1087 143.207 40.6C138.707 43.1 133.807 47.2 128.507 52.8C130.707 45.4 131.807 39.1 131.807 34C131.807 24.9826 128.224 16.3346 121.848 9.95837C115.472 3.58213 106.824 0 97.8066 0C88.7892 0 80.1412 3.58213 73.765 9.95837C67.3887 16.3346 63.8066 24.9826 63.8066 34C63.8066 39.1 64.9066 45.4 67.1066 52.8C61.8066 47.2 56.9066 43.1 52.4066 40.6C48.5375 38.1087 44.203 36.4288 39.6656 35.662C35.1282 34.8952 30.4823 35.0575 26.0094 36.139C21.5366 37.2204 17.3298 39.1987 13.644 41.9538C9.9581 44.7089 6.86988 48.1835 4.56638 52.1672C2.26287 56.1509 0.792015 60.5608 0.242918 65.1297C-0.30618 69.6985 0.077907 74.3313 1.37191 78.7474C2.66591 83.1635 4.8429 87.2709 7.771 90.8209C10.6991 94.3709 14.3173 97.2895 18.4066 99.4C22.9399 102 28.9399 104.2 36.4066 106C28.9399 107.8 22.9399 110 18.4066 112.6C11.9396 116.356 6.8916 122.14 4.04437 129.056C1.19714 135.972 0.709551 143.633 2.65712 150.854C4.60468 158.075 8.87873 164.452 14.8173 168.998C20.756 173.544 28.0278 176.005 35.5066 176C41.4495 176.002 47.2846 174.414 52.4066 171.4C56.9066 168.9 61.8066 164.8 67.1066 159.2C64.9066 166.6 63.8066 172.9 63.8066 178C63.8066 187.017 67.3887 195.665 73.765 202.042C80.1412 208.418 88.7892 212 97.8066 212C106.824 212 115.472 208.418 121.848 202.042C128.224 195.665 131.807 187.017 131.807 178C131.807 172.9 130.707 166.6 128.507 159.2C133.807 164.8 138.707 168.9 143.207 171.4C148.329 174.414 154.164 176.002 160.107 176C167.585 176.005 174.857 173.544 180.796 168.998C186.734 164.452 191.009 158.075 192.956 150.854C194.904 143.633 194.416 135.972 191.569 129.056C188.722 122.14 183.674 116.356 177.207 112.6V112.6ZM75.8066 106C75.8066 101.649 77.0969 97.3953 79.5143 93.7775C81.9317 90.1596 85.3676 87.3398 89.3876 85.6747C93.4075 84.0095 97.831 83.5738 102.099 84.4227C106.366 85.2716 110.286 87.3669 113.363 90.4436C116.44 93.5204 118.535 97.4404 119.384 101.708C120.233 105.976 119.797 110.399 118.132 114.419C116.467 118.439 113.647 121.875 110.029 124.292C106.411 126.71 102.158 128 97.8066 128C91.9799 127.974 86.3994 125.647 82.2793 121.527C78.1592 117.407 75.8329 111.827 75.8066 106ZM149.207 50.9C154.272 47.9826 160.289 47.197 165.934 48.7161C171.579 50.2351 176.389 53.9344 179.307 59C182.224 64.0656 183.01 70.0827 181.491 75.7276C179.971 81.3724 176.272 86.1826 171.207 89.1C163.807 93.3 149.907 96.5 130.907 98.3C129.395 91.7366 125.946 85.7789 121.007 81.2C132.107 65.6 141.807 55.2 149.207 50.9V50.9ZM97.8066 12C103.633 12.0263 109.214 14.3526 113.334 18.4727C117.454 22.5928 119.78 28.1733 119.807 34C119.807 42.5 115.607 56.1 107.707 73.5C101.258 71.4987 94.3549 71.4987 87.9066 73.5C80.0066 56.1 75.8066 42.5 75.8066 34C75.8329 28.1733 78.1592 22.5928 82.2793 18.4727C86.3994 14.3526 91.9799 12.0263 97.8066 12ZM16.4066 59C19.3345 53.9732 24.1264 50.3035 29.7426 48.7872C35.3589 47.2708 41.3465 48.03 46.4066 50.9C53.8066 55.2 63.5066 65.6 74.6066 81.2C69.6673 85.7789 66.2181 91.7366 64.7066 98.3C45.7066 96.5 31.8066 93.3 24.4066 89.1C21.9027 87.6511 19.7091 85.7225 17.9515 83.4248C16.1938 81.127 14.9066 78.5052 14.1635 75.7093C13.4204 72.9134 13.2361 69.9985 13.621 67.1313C14.0059 64.2641 14.9525 61.5009 16.4066 59V59ZM46.4066 161.1C41.341 164.017 35.3239 164.803 29.679 163.284C24.0342 161.765 19.224 158.066 16.3066 153C13.3892 147.934 12.6036 141.917 14.1227 136.272C15.6417 130.628 19.341 125.817 24.4066 122.9C31.8066 118.7 45.7066 115.5 64.7066 113.7C66.2181 120.263 69.6673 126.221 74.6066 130.8C63.5066 146.4 53.8066 156.8 46.4066 161.1ZM97.8066 200C91.9799 199.974 86.3994 197.647 82.2793 193.527C78.1592 189.407 75.8329 183.827 75.8066 178C75.8066 169.5 80.0066 155.9 87.9066 138.5C94.3549 140.501 101.258 140.501 107.707 138.5C115.607 155.9 119.807 169.5 119.807 178C119.78 183.827 117.454 189.407 113.334 193.527C109.214 197.647 103.633 199.974 97.8066 200ZM179.207 153C176.279 158.027 171.487 161.696 165.871 163.213C160.254 164.729 154.267 163.97 149.207 161.1C141.807 156.8 132.107 146.4 121.007 130.8C125.946 126.221 129.395 120.263 130.907 113.7C149.907 115.5 163.807 118.7 171.207 122.9C173.711 124.349 175.904 126.277 177.662 128.575C179.419 130.873 180.707 133.495 181.45 136.291C182.193 139.087 182.377 142.002 181.992 144.869C181.607 147.736 180.661 150.499 179.207 153V153Z" fill="black"/>
</svg>
